<?xml version="1.0" encoding="utf-8"?>
<!-- Generator: Adobe Illustrator 23.0.1, SVG Export Plug-In . SVG Version: 6.00 Build 0)  -->
<svg version="1.1" id="Capa_1" xmlns="http://www.w3.org/2000/svg" xmlns:xlink="http://www.w3.org/1999/xlink" x="0px" y="0px"
	 viewBox="0 0 24 24" style="enable-background:new 0 0 24 24;" xml:space="preserve">
<style type="text/css">
	.st0{fill:#019939;}
	.st1{fill:#99C667;}
</style>
<path class="st0" d="M17.8,6.2L17.8,6.2c0.6,0.6,0.6,1.6,0,2.3l-9.4,9.4c-0.6,0.6-1.6,0.6-2.3,0l0,0c-0.6-0.6-0.6-1.6,0-2.3l9.4-9.4
	C16.2,5.5,17.2,5.5,17.8,6.2z"/>
<path class="st0" d="M18.5,16.9L18.5,16.9c0,0.9-0.7,1.6-1.6,1.6H7.1c-0.9,0-1.6-0.7-1.6-1.6l0,0c0-0.9,0.7-1.6,1.6-1.6H17
	C17.8,15.3,18.5,16,18.5,16.9z"/>
<path class="st1" d="M18.5,7.1L18.5,7.1c0,0.9-0.7,1.6-1.6,1.6H7.1C6.2,8.7,5.5,8,5.5,7.1l0,0c0-0.9,0.7-1.6,1.6-1.6h9.8
	C17.8,5.5,18.5,6.2,18.5,7.1z"/>
<path class="st1" d="M7.1,13.6h2.4c0.9,0,1.6-0.7,1.6-1.6l0,0c0-0.9-0.7-1.6-1.6-1.6H7.1c-0.9,0-1.6,0.7-1.6,1.6l0,0
	C5.5,12.9,6.2,13.6,7.1,13.6z"/>
<path class="st1" d="M7.1,5.5L7.1,5.5c0.9,0,1.6,0.7,1.6,1.6v9.8c0,0.9-0.7,1.6-1.6,1.6l0,0c-0.9,0-1.6-0.7-1.6-1.6V7.1
	C5.5,6.2,6.2,5.5,7.1,5.5z"/>
</svg>
